<svg xmlns="http://www.w3.org/2000/svg" version="1.1" xmlns:xlink="http://www.w3.org/1999/xlink" xmlns:svgjs="http://svgjs.com/svgjs" width="512" height="512"><svg id="SvgjsSvg1000" data-name="Layer 1" xmlns="http://www.w3.org/2000/svg" version="1.1" viewBox="0 0 512 512">
  <defs>
    <style>
      .cls-1 {
        fill: #000;
      }

      .cls-1, .cls-2, .cls-3, .cls-4, .cls-5 {
        stroke-width: 0px;
      }

      .cls-2, .cls-6 {
        fill: none;
      }

      .cls-3 {
        fill: gray;
      }

      .cls-4 {
        fill: #d08100;
      }

      .cls-6 {
        stroke: #d08100;
        stroke-miterlimit: 10;
        stroke-width: 9.3px;
      }

      .cls-5 {
        fill: #fff;
      }
    </style>
  </defs>
  <g>
    <path class="cls-3" d="M124.5,443.5c-49.4,0-89.7-40.2-89.7-89.7v-123.1c0-49.4,40.2-89.7,89.7-89.7h247.5c49.4,0,89.7,40.2,89.7,89.7v123.2c0,49.4-40.2,89.7-89.7,89.7H124.5Z"></path>
    <path class="cls-4" d="M372,159.1c39.5,0,71.6,32.1,71.6,71.6v123.2c0,39.5-32.1,71.6-71.6,71.6H124.5c-39.5-.1-71.6-32.2-71.6-71.7v-123.1c0-39.5,32.1-71.6,71.6-71.6h247.4M372,122.9H124.5c-59.6,0-107.9,48.3-107.9,107.9v123.2c0,59.5,48.3,107.8,107.9,107.8h247.5c59.6,0,107.9-48.3,107.9-107.9v-123.1c-.1-59.6-48.4-107.9-108-107.9h0Z"></path>
  </g>
  <circle class="cls-1" cx="148.3" cy="230.6" r="23.8"></circle>
  <circle class="cls-5" cx="141.5" cy="224.9" r="6.7"></circle>
  <circle class="cls-1" cx="340.3" cy="226.5" r="23.8"></circle>
  <circle class="cls-5" cx="331.7" cy="221.3" r="7.3"></circle>
  <path class="cls-1" d="M290,318.6c-6.8,8.6-20.7,17.6-38,23.7-12.3,4.4-24.1,6.4-33.9,6.4s-15.7-1.8-19.6-5.2c-6.6,6.3-9.7,12.8-8.1,18.5,2.4,8.2,14.2,12.5,30.3,12.5s21.4-1.7,33.4-5.1c31.3-9.1,53.6-27.1,49.8-40.3-1.6-5.1-6.5-8.7-13.9-10.7h0Z"></path>
  <g>
    <line class="cls-6" x1="193.3" y1="32.2" x2="228.6" y2="123.4"></line>
    <line class="cls-2" x1="193.3" y1="32.2" x2="228.6" y2="123.4"></line>
  </g>
  <line class="cls-6" x1="266.9" y1="123.4" x2="304.2" y2="31.2"></line>
  <g>
    <circle class="cls-3" cx="190.2" cy="21.8" r="16.6"></circle>
    <path class="cls-4" d="M190.2,5.2c-9.1,0-16.6,7.5-16.6,16.6s7.5,16.6,16.6,16.6,16.6-7.5,16.6-16.6-7.5-16.6-16.6-16.6h0Z"></path>
  </g>
  <g>
    <circle class="cls-3" cx="307.8" cy="22.3" r="16.6"></circle>
    <path class="cls-4" d="M307.8,5.8c-9.1,0-16.6,7.5-16.6,16.6s7.5,16.6,16.6,16.6,16.6-7.5,16.6-16.6-7.5-16.6-16.6-16.6h0Z"></path>
  </g>
  <g>
    <polygon class="cls-3" points="350.1 476.8 350.4 476.8 350.3 477 350.1 476.8"></polygon>
    <polygon class="cls-4" points="324.3 461.6 337.2 484.3 350 507.1 363.3 484.5 376.5 462 350.4 461.8 324.3 461.6"></polygon>
  </g>
  <g>
    <polygon class="cls-3" points="141.2 476.5 141.5 476.5 141.3 476.7 141.2 476.5"></polygon>
    <polygon class="cls-4" points="115.3 461.3 128.2 484.1 141.1 506.8 154.4 484.3 167.6 461.7 141.4 461.5 115.3 461.3"></polygon>
  </g>
</svg><style>@media (prefers-color-scheme: light) { :root { filter: none; } }
</style></svg>