<?xml version="1.0" encoding="UTF-8"?>
<svg id="Layer_1" data-name="Layer 1" xmlns="http://www.w3.org/2000/svg" version="1.1" viewBox="0 0 533 300">
  <defs>
    <style>
      .cls-1 {
        fill: #818181;
      }

      .cls-1, .cls-2, .cls-3, .cls-4, .cls-5 {
        stroke-width: 0px;
      }

      .cls-2, .cls-6 {
        fill: none;
      }

      .cls-3 {
        fill: #010101;
      }

      .cls-7 {
        fill: #fcb23b;
        font-family: Algerian, Algerian;
        font-size: 65.9px;
      }

      .cls-6 {
        stroke: #cf8229;
        stroke-miterlimit: 10;
        stroke-width: 4.8px;
      }

      .cls-4 {
        fill: #cf8229;
      }

      .cls-5 {
        fill: #fff;
      }
    </style>
  </defs>
  <g>
    <path class="cls-1" d="M65.3,246.3c-25.4,0-46.1-20.6-46.1-46.1v-63.2c0-25.4,20.6-46.1,46.1-46.1h127c25.4,0,46.1,20.6,46.1,46.1v63.2c0,25.4-20.6,46.1-46.1,46.1h-127Z"/>
    <path class="cls-4" d="M192.3,100.2c20.3,0,36.8,16.5,36.8,36.8v63.2c0,20.3-16.5,36.8-36.8,36.8h-127c-20.2,0-36.7-16.6-36.7-36.8v-63.2c0-20.3,16.5-36.8,36.8-36.8h126.9M192.3,81.7h-127c-30.6,0-55.3,24.8-55.3,55.3v63.2c0,30.5,24.8,55.3,55.3,55.3h127c30.6,0,55.3-24.8,55.3-55.3v-63.2c.1-30.5-24.7-55.3-55.3-55.3h0Z"/>
  </g>
  <circle class="cls-3" cx="77.5" cy="137" r="12.2"/>
  <circle class="cls-5" cx="74.1" cy="134.1" r="3.4"/>
  <circle class="cls-3" cx="176.1" cy="134.8" r="12.2"/>
  <circle class="cls-5" cx="171.7" cy="132.2" r="3.7"/>
  <path class="cls-3" d="M150.3,182.1c-3.5,4.4-10.6,9-19.5,12.2-6.4,2.2-12.4,3.3-17.3,3.3s-8.1-.9-10.1-2.6c-3.4,3.3-5,6.6-4.2,9.6,1.2,4.2,7.2,6.5,15.5,6.5s11-.9,17.1-2.6c16-4.7,27.4-13.9,25.6-20.6-.7-2.7-3.2-4.6-7-5.6h0Z"/>
  <g>
    <line class="cls-6" x1="100.7" y1="35.1" x2="118.8" y2="81.9"/>
    <line class="cls-2" x1="100.7" y1="35.1" x2="118.8" y2="81.9"/>
  </g>
  <line class="cls-6" x1="138.4" y1="81.9" x2="157.5" y2="34.6"/>
  <g>
    <circle class="cls-1" cx="99.1" cy="29.9" r="8.6"/>
    <path class="cls-4" d="M99.1,21.3c-4.7,0-8.6,3.8-8.6,8.6s3.8,8.6,8.6,8.6,8.6-3.8,8.6-8.6-4-8.6-8.6-8.6h0Z"/>
  </g>
  <g>
    <circle class="cls-1" cx="159.4" cy="30.1" r="8.6"/>
    <path class="cls-4" d="M159.4,21.5c-4.7,0-8.6,3.8-8.6,8.6s3.8,8.6,8.6,8.6,8.6-3.8,8.6-8.6c0-4.7-3.8-8.6-8.6-8.6h0Z"/>
  </g>
  <g>
    <polygon class="cls-1" points="181.1 260.9 181.4 260.9 181.3 261 181.1 260.9"/>
    <polygon class="cls-4" points="167.9 252.9 174.6 264.7 181.1 276.3 188 264.8 194.8 253.2 181.4 253.1 167.9 252.9"/>
  </g>
  <g>
    <polygon class="cls-1" points="73.9 263.3 74.1 263.3 74 263.3 73.9 263.3"/>
    <polygon class="cls-4" points="60.6 255.4 67.2 267.1 73.9 278.7 80.7 267.2 87.5 255.6 74 255.5 60.6 255.4"/>
  </g>
  <rect class="cls-2" x="253.6" y="175.1" width="270.2" height="56.4"/>
  <text class="cls-7" transform="translate(253.6 231.5)"><tspan x="0" y="0">CINE HUB</tspan></text>
</svg>